<?xml version="1.0" encoding="utf-8"?><svg version="1.1" id="Layer_1" xmlns="http://www.w3.org/2000/svg" xmlns:xlink="http://www.w3.org/1999/xlink" x="0px" y="0px" viewBox="0 0 122.88 101.3" style="enable-background:new 0 0 122.88 101.3" xml:space="preserve"><style type="text/css">.st0{fill-rule:evenodd;clip-rule:evenodd;}</style><g><path class="st0" d="M61.7,17.72c9.72-2.36,21.24-2.33,30.28-1.54C84.25,29.95,67.62,28.04,61.7,17.72L61.7,17.72z M30.01,74.82 c-3.7-2.65-7.83-4.72-13.74-2.28c-3.83,1.58-6.91,5.06-8.56,9.39c15.23-7.43,21.32,12.49,3.07,13.61 c5.77,6.56,13.99,6.27,20.49,1.16c3.08-2.41,4.81-3.63,6.6-4.19c0.98-0.32,1.97-0.4,3.23-0.44c4.24-0.13,35.92,0.23,40.43,0.2 c8.48-0.07,13.14,12.84,25.07,7.91c3.83-1.58,6.91-5.06,8.56-9.39c-15.23,7.43-21.32-12.49-3.07-13.61 c-5.77-6.56-13.99-6.27-20.49-1.16c-2.85,2.25-4.62,4.85-10.37,4.85c-3.99-0.06-35.62-0.2-39.62-0.36 c-1.59-0.05-2.65-0.18-3.66-0.54c-1.83-0.64-3.52-2-7.89-5.15L30.01,74.82L30.01,74.82z M105.66,39.74 c5.6,0,10.14,4.54,10.14,10.14c0,5.6-4.54,10.14-10.14,10.14c-5.6,0-10.14-4.54-10.14-10.14C95.52,44.28,100.06,39.74,105.66,39.74 L105.66,39.74z M19.73,39.74c5.6,0,10.14,4.54,10.14,10.14c0,5.6-4.54,10.14-10.14,10.14c-5.6,0-10.14-4.54-10.14-10.14 C9.59,44.28,14.13,39.74,19.73,39.74L19.73,39.74z M41.6,9.27c1.16,0.42,1.71,1.57,1.05,2.98c-0.89,1.89-1.88,1.83-3.69,2.29 l-1.15,0.29c-1.47,0.4-2.66,0.39-3.49,0.11l-1.04,0.22l-1,2.16c4.1,1,7.87-0.59,11.39-4.15c5.05-0.79,9.93-0.31,14.59,1.86 c0.42,4.29,1.72,7.56,3.73,10c6.25,7.56,17.94,6.94,25.7,2.07c3.65-2.29,6.66-5.57,9.07-9.76c5.34-0.02,10.62,0.28,15.8,1.1 l1.54,3.51C94.89,22.22,83.5,35.66,78.98,56.6H45.08c-1.98-11.5-7.09-19.53-14.39-25.15c-2.13-1.64-4.75-3.34-0.86-0.51l-1.69,3.92 c5.21,2.92,8.73,8.5,8.73,14.9c0,9.43-7.65,17.08-17.08,17.08S2.71,59.19,2.71,49.75c0-8.35,6-15.31,13.92-16.79 c-4.53,0.49-9.71,2.11-15.43,4.66L0,35.32c5.1-4.62,12.93-7.45,24.42-7.88c-3.85-2.03-8.11-3.61-12.68-4.85 C17.25,11.86,24.28,4.01,33.35,0l1.32,2.19c-3.04,3.46-5.5,7.68-7.35,12.72c0.8,0.57,1.59,1.05,2.36,1.43l1.39-2.98 c0.21-0.44,0.62-0.73,1.07-0.79l0.96-0.2c0.04-0.1,0.1-0.21,0.16-0.31c0.95-1.68,2.9-2.1,4.77-2.49 C39.18,9.35,40.47,8.86,41.6,9.27L41.6,9.27L41.6,9.27z M110.49,23.7l3.55-0.49l8.46,8.9l-2.24,0.78L110.49,23.7L110.49,23.7z M105.8,32.67c9.43,0,17.08,7.65,17.08,17.08c0,9.43-7.65,17.08-17.08,17.08c-8.18,0-15.02-5.76-16.69-13.44l-6.08,0.56 c0.77-4.4,2.23-8.49,4.22-12.33l3.06,0.92C93.03,36.71,98.94,32.67,105.8,32.67L105.8,32.67L105.8,32.67z"/></g></svg>