<?xml version="1.0" encoding="utf-8"?><svg version="1.1" id="Layer_1" xmlns="http://www.w3.org/2000/svg" xmlns:xlink="http://www.w3.org/1999/xlink" x="0px" y="0px" viewBox="0 0 122.88 117.4" style="enable-background:new 0 0 122.88 117.4" xml:space="preserve"><style type="text/css">.st0{fill-rule:evenodd;clip-rule:evenodd;}</style><g><path class="st0" d="M66.41,101.17h21.91c1.76-1.75,3.69-3.57,5.65-5.42c4.11-3.89,8.4-7.95,12.81-13.03 c5.04-5.81,5.58-7.82,7.11-13.51c0.29-1.07,0.61-2.27,1.03-3.76l2.62-9.21l0.03-0.1c1.4-4.1,1.51-6.81,0.93-8.37 c-0.18-0.48-0.41-0.8-0.68-0.97c-0.21-0.14-0.49-0.19-0.78-0.16c-0.68,0.07-1.45,0.5-2.15,1.27l-7.78,18.53 c-0.07,0.17-0.17,0.33-0.28,0.47c-0.46,0.83-1.08,1.64-1.88,2.41L91.14,84.7c-0.75,0.84-2.04,0.91-2.87,0.16 c-0.84-0.75-0.91-2.04-0.16-2.87l13.81-15.39c0.06-0.07,0.12-0.14,0.19-0.2c1.43-1.36,1.88-2.83,1.63-3.9 c-0.08-0.33-0.22-0.61-0.42-0.8c-0.19-0.17-0.44-0.29-0.75-0.32v0c-1.23-0.13-3.04,0.78-5.25,3.39l0,0 c-0.06,0.07-0.13,0.14-0.2,0.21l-5.35,4.72l-0.03,0.03c-5.79,5.48-8.28,6.78-12.82,9.15c-0.95,0.5-1.99,1.04-3.28,1.74 c-0.51,0.28-1.01,0.62-1.5,0.99c-0.52,0.4-1.02,0.81-1.49,1.21c-2.4,2.02-3.66,3.66-4.38,5.47c-0.75,1.88-1.02,4.17-1.39,7.31 c-0.15,1.27-0.26,2.52-0.35,3.77C66.47,99.99,66.44,100.59,66.41,101.17L66.41,101.17L66.41,101.17z M54.55,23.56l-0.1-0.44 c-1.53,0.42-3.08,0.55-4.63,0.5c-1.77-0.06-3.54-0.36-5.31-0.77c-0.87-0.2-1.63-0.41-2.35-0.61c-1.62-0.45-3.04-0.85-5.01-0.88 c-0.02,0-0.03,0-0.05,0l0,0l-7.11-0.6l-1.4,2.01c4.08,1.58,9.15,2.68,14.03,3.11c4.6,0.41,9.01,0.22,12.23-0.73L54.55,23.56 L54.55,23.56L54.55,23.56z M89.18,29.69c6.46,0,11.7,5.24,11.7,11.7c0,6.46-5.24,11.7-11.7,11.7c-6.46,0-11.7-5.24-11.7-11.7 c0-3.9,1.91-7.35,4.84-9.48l-3.39-6.68L72.7,43.98h-2.75c0,0.07,0,0.15-0.02,0.23c-0.23,1.27-0.62,2.3-1.17,3.07 c-0.62,0.86-1.42,1.42-2.42,1.65c-1.21,0.29-4.62-0.25-6.84-0.61c-0.59-0.09-1.1-0.17-1.42-0.22l-7.32-0.98l-0.03,0.12 c-0.17,0.69-0.85,1.15-1.57,1.04l-4.55-0.74c-0.49,0.77-1.06,1.48-1.71,2.11c-2.15,2.11-5.13,3.41-8.41,3.41 c-3.28,0-6.25-1.3-8.41-3.41c-2.16-2.11-3.49-5.03-3.49-8.24c0-3.22,1.33-6.13,3.49-8.24c2.15-2.1,5.13-3.41,8.41-3.41 c3.28,0,6.25,1.3,8.41,3.41c2.16,2.11,3.49,5.03,3.49,8.24c0,0.36-0.02,0.71-0.05,1.06l3.96,1.09c0.68,0.19,1.1,0.86,1,1.54 l7.04,0.94c0.36,0.05,0.88,0.13,1.48,0.23c2.06,0.33,5.21,0.83,6.03,0.63c0.49-0.12,0.89-0.4,1.2-0.84c0.36-0.5,0.63-1.2,0.8-2.09 l-16.74,0c-5.08-17.32-17.79-19.7-25.08-13.5L22,30.43c1.21-2.92,4.04-4.82,7.49-5.85c-0.76-0.26-1.5-0.54-2.2-0.83 c-0.06-0.02-0.11-0.05-0.16-0.08c-0.31-0.22-0.39-0.65-0.17-0.97l2.11-3.04c0.13-0.21,0.38-0.34,0.64-0.31l7.5,0.64v0 c2.14,0.03,3.63,0.45,5.32,0.92c0.71,0.2,1.45,0.41,2.28,0.6c1.7,0.39,3.38,0.68,5.05,0.73c1.6,0.05,3.19-0.11,4.76-0.62 c0.51-0.46,1.03-0.89,1.57-1.31c0.56-0.43,1.15-0.86,1.78-1.28c1.68-1.12,3.39-2.01,5.21-2.62c1.83-0.61,3.75-0.93,5.82-0.89 c1.28,0.02,2.52,0.22,3.69,0.62c0.81,0.28,1.59,0.66,2.34,1.15c0.01-0.13,0.05-0.25,0.13-0.36l-3.7-2.78h-5.79 c-0.67,0-1.22-0.54-1.22-1.22c0-0.67,0.54-1.22,1.22-1.22l5.34,0V6.89h0l0-0.02c0-0.16,0-0.31-0.02-0.44 c-0.01-0.11-0.04-0.21-0.07-0.31c-0.1-0.31-0.32-0.45-0.62-0.63c-0.02-0.01-0.03-0.02-0.05-0.03c-0.03-0.02-0.06-0.04-0.14-0.08 l-0.05,0.83c-0.03,0.5-0.46,0.87-0.95,0.84c-0.5-0.03-0.87-0.46-0.84-0.95l0.33-5.26c0.03-0.5,0.46-0.87,0.95-0.84 c0.5,0.03,0.87,0.46,0.84,0.95l-0.15,2.39l0.67,0.41l0.25,0.15c0.02,0.01,0.03,0.02,0.05,0.03c0.64,0.38,1.11,0.67,1.42,1.62 c0.06,0.19,0.11,0.4,0.14,0.64c0.03,0.21,0.04,0.44,0.03,0.68l0,0v5.25l2.35,1.76l0.21-0.24l-0.55-0.4 c-0.31-0.22-0.38-0.66-0.16-0.97c0.02-0.03,0.04-0.05,0.06-0.07l2.17-2.52c0.25-0.29,0.69-0.32,0.98-0.08l0.01,0.01l2.02,1.66 c0.3,0.24,0.34,0.68,0.09,0.97l-0.01,0.02l0,0l-2.11,2.41c-0.08,0.09-0.19,0.16-0.3,0.2l0,0l-0.75,0.26l0.68,0.51l0.02,0.02 l0.2-0.1c0.34-0.17,0.76-0.03,0.93,0.31l0.01,0.02l0.99,1.89c0.47-1.06,1.53-1.8,2.46-2.44c0.2-0.14,0.38-0.27,0.55-0.39 c0.73-0.54,1.4-0.88,2.01-1.04c0.67-0.17,1.28-0.12,1.8,0.14c0.52,0.26,0.93,0.72,1.19,1.37c0.24,0.58,0.36,1.32,0.36,2.21v2.55 c0,0.04,0,0.07-0.01,0.1c-0.07,1.13-0.33,1.95-0.73,2.5c-0.25,0.34-0.55,0.58-0.89,0.73c-0.34,0.15-0.7,0.21-1.09,0.19 c-0.83-0.05-1.76-0.48-2.73-1.18L81.85,22l4.36,8.07C87.16,29.83,88.15,29.69,89.18,29.69L89.18,29.69L89.18,29.69z M83.5,31.16 c0.45-0.25,0.91-0.47,1.39-0.66l-7.07-13.24c-0.02,0.03-0.04,0.06-0.06,0.09c-0.29,0.18-0.65,0.4-1,0.48L83.5,31.16L83.5,31.16 L83.5,31.16z M30.24,38.02l2.9,0.8c0.21-0.1,0.43-0.18,0.67-0.23l0.18-4.62l-0.03,0l-0.06,0c-0.05,0-0.1,0.01-0.15,0.01l-0.02,0 l0,0c-0.06,0.01-0.11,0.01-0.17,0.02l-0.06,0.01c-0.04,0-0.07,0.01-0.11,0.02l-0.07,0.01c-0.04,0.01-0.07,0.01-0.11,0.02 l-0.06,0.01c-0.04,0.01-0.09,0.02-0.13,0.03l-0.03,0.01c-0.06,0.01-0.11,0.02-0.17,0.04l-0.05,0.01c-0.04,0.01-0.08,0.02-0.11,0.03 l-0.06,0.02l-0.11,0.03l-0.06,0.02c-0.04,0.01-0.09,0.03-0.13,0.04l-0.03,0.01c-0.05,0.02-0.1,0.03-0.16,0.05l-0.06,0.02 c-0.03,0.01-0.07,0.02-0.1,0.04l-0.06,0.02l-0.09,0.04l-0.07,0.03c-0.03,0.01-0.06,0.03-0.09,0.04l-0.06,0.02 c-0.05,0.02-0.1,0.04-0.14,0.06l-0.06,0.03l-0.09,0.04l-0.07,0.03l-0.07,0.04l-0.07,0.04l-0.08,0.04l-0.06,0.03l0,0 c-0.04,0.02-0.08,0.05-0.13,0.07h0l-0.08,0.05l-0.06,0.03c-0.03,0.02-0.05,0.03-0.08,0.05l-0.06,0.04l-0.08,0.05l-0.06,0.04 l-0.08,0.05l-0.02,0.01c-0.06,0.04-0.13,0.09-0.19,0.13l-0.04,0.03l-0.08,0.06l-0.05,0.04c-0.03,0.02-0.05,0.04-0.08,0.06 l-0.04,0.03c-0.1,0.08-0.19,0.16-0.29,0.25l-0.02,0.01c-0.03,0.03-0.06,0.05-0.08,0.08l-0.03,0.03c-0.03,0.03-0.05,0.05-0.08,0.08 l-0.03,0.03c-0.03,0.03-0.05,0.05-0.08,0.08l-0.01,0.01c-0.09,0.09-0.18,0.19-0.27,0.29l-0.02,0.02c-0.03,0.03-0.05,0.06-0.08,0.09 l-0.02,0.02c-0.1,0.11-0.19,0.23-0.27,0.34L30.24,38.02L30.24,38.02L30.24,38.02z M38.09,40.18l3.85,1.06 c-0.02-0.99-0.23-1.92-0.6-2.78L38.09,40.18L38.09,40.18L38.09,40.18z M39.7,46.73l-4.66-0.76l-0.07,2.87l0.07-0.01l0.03,0 c0.05,0,0.11-0.01,0.16-0.01l0.04,0c0.05-0.01,0.1-0.01,0.15-0.02l0.03,0c0.05-0.01,0.1-0.01,0.16-0.02l0.05-0.01 c0.05-0.01,0.11-0.02,0.16-0.03l0.01,0c0.05-0.01,0.1-0.02,0.15-0.03l0.04-0.01c0.05-0.01,0.1-0.02,0.15-0.03l0.03-0.01 c0.04-0.01,0.09-0.02,0.13-0.03l0.04-0.01c0.05-0.01,0.1-0.03,0.15-0.04l0.04-0.01c0.05-0.01,0.09-0.03,0.14-0.04l0.01,0l0,0 c0.05-0.02,0.09-0.03,0.14-0.05l0.05-0.02c0.05-0.02,0.09-0.03,0.14-0.05l0.04-0.01c0.04-0.01,0.07-0.03,0.11-0.04l0.05-0.02 c0.04-0.02,0.09-0.03,0.13-0.05l0.05-0.02l0.09-0.04l0.05-0.02c0.04-0.02,0.08-0.04,0.12-0.06l0.07-0.03l0.08-0.04 c0.03-0.02,0.07-0.03,0.1-0.05L38,47.98l0.07-0.04c0.03-0.02,0.06-0.04,0.1-0.05c0.03-0.02,0.05-0.03,0.08-0.05l0.06-0.04 l0.07-0.04c0.03-0.02,0.06-0.04,0.1-0.06l0,0l0.08-0.05l0.04-0.03c0.04-0.03,0.09-0.06,0.13-0.09l0.04-0.03l0.08-0.06l0.03-0.02 c0.05-0.04,0.1-0.07,0.14-0.11l0.02-0.02c0.03-0.02,0.05-0.04,0.08-0.06l0.01-0.01c0.05-0.04,0.1-0.08,0.15-0.12l0.03-0.02 c0.08-0.07,0.16-0.14,0.24-0.21l0,0C39.6,46.82,39.65,46.78,39.7,46.73L39.7,46.73L39.7,46.73z M33.66,45.74l-4.42-0.72l-0.96,0.52 l0.01,0.01c0.02,0.03,0.04,0.05,0.06,0.08l0.04,0.06l0.06,0.08l0.04,0.06c0.02,0.03,0.04,0.05,0.06,0.08l0.04,0.05l0.06,0.08 l0.04,0.05c0.02,0.03,0.04,0.05,0.06,0.08c0.02,0.02,0.04,0.04,0.05,0.06c0.02,0.02,0.03,0.04,0.05,0.06l0,0 c0.03,0.04,0.07,0.08,0.1,0.12l0.06,0.07l0.05,0.05c0.02,0.02,0.04,0.04,0.06,0.06l0.06,0.06l0.05,0.05l0.07,0.06l0.06,0.06 l0.06,0.06l0.07,0.06l0.06,0.05l0.06,0.05l0.07,0.06c0.02,0.02,0.04,0.03,0.06,0.05c0.04,0.03,0.08,0.07,0.12,0.1l0,0l0.05,0.04 c0.03,0.02,0.05,0.04,0.08,0.06l0.07,0.05l0.07,0.05l0.07,0.05l0.07,0.05l0.07,0.05l0.07,0.05l0.07,0.04 c0.03,0.02,0.05,0.03,0.08,0.05l0.06,0.04c0.03,0.02,0.06,0.04,0.09,0.06l0.05,0.03c0.05,0.03,0.1,0.05,0.15,0.08l0.05,0.03 c0.03,0.02,0.07,0.04,0.1,0.05l0.06,0.03l0.09,0.05l0.06,0.03l0.09,0.04l0.07,0.03c0.03,0.01,0.06,0.03,0.09,0.04l0.06,0.03 c0.03,0.01,0.07,0.03,0.1,0.04l0.06,0.02c0.05,0.02,0.09,0.04,0.14,0.05l0.02,0.01l0,0c0.05,0.02,0.11,0.04,0.16,0.06l0.05,0.02 c0.04,0.01,0.07,0.02,0.11,0.04l0.06,0.02c0.04,0.01,0.07,0.02,0.11,0.03l0.06,0.02l0.1,0.03l0.07,0.02 c0.04,0.01,0.07,0.02,0.11,0.03l0.06,0.01c0.04,0.01,0.08,0.02,0.12,0.03L33,48.71c0.05,0.01,0.1,0.02,0.15,0.03l0.02,0l0,0 c0.06,0.01,0.11,0.02,0.17,0.03l0.07,0.01c0.04,0.01,0.07,0.01,0.11,0.02l0.07,0.01L33.66,45.74L33.66,45.74L33.66,45.74z M29.06,39.13L27.4,39.1l-1.47-0.03l-0.67,2.46l2.57,1.85l6.27,1.03l0.98,0.16l4.48,0.73l1.17,0.19l4.6,0.75l3.95,0.65 c0.2-0.33,0.52-1.66,0.67-1.97l0.01-0.02l-5.03-1.39l-3.07-0.85l-9.94-2.74l-2.22-0.61L29.06,39.13L29.06,39.13L29.06,39.13z M83.03,16.69c-0.83,0.58-1.8,1.25-1.98,2c-0.08,0.35-0.1,0.53-0.05,0.62c0.06,0.11,0.27,0.27,0.58,0.5l1.97,1.44 c0.72,0.53,1.37,0.85,1.86,0.88c0.13,0.01,0.25-0.01,0.34-0.05c0.09-0.04,0.18-0.11,0.25-0.22c0.23-0.31,0.38-0.84,0.43-1.64v-2.56 c0-0.68-0.08-1.22-0.24-1.6c-0.11-0.27-0.25-0.45-0.42-0.54c-0.17-0.08-0.4-0.09-0.69-0.02c-0.41,0.11-0.9,0.36-1.45,0.77 C83.44,16.41,83.24,16.55,83.03,16.69L83.03,16.69L83.03,16.69z M75,20.54l-0.07-1.61c-0.84-0.66-1.74-1.15-2.68-1.47 c-1.04-0.36-2.14-0.53-3.27-0.55c-1.91-0.04-3.68,0.26-5.36,0.82c-1.69,0.57-3.3,1.4-4.88,2.46c-0.57,0.38-1.14,0.79-1.7,1.23 c-0.45,0.35-0.88,0.7-1.29,1.07l0.14,0.73l0.42,1.76l15.89,0.06c0.02,0,0.04,0,0.07,0v0c0.42,0.04,0.79,0.01,1.1-0.07 c0.28-0.08,0.53-0.22,0.73-0.4c1.03-0.94,0.96-2.54,0.9-3.94L75,20.54L75,20.54L75,20.54z M51.37,29.65l6.11-0.08 c0.45-0.01,0.86,0.37,0.81,0.81l-0.45,3.94c-0.05,0.44-0.37,0.81-0.81,0.81h-3.86c-0.44,0-0.62-0.41-0.81-0.81l-1.8-3.85 C50.37,30.06,50.93,29.66,51.37,29.65L51.37,29.65L51.37,29.65z M65.69,29.16h5.52c0.45,0,0.91,0.38,0.81,0.81l-1.17,4.97 c-0.1,0.43-0.37,0.81-0.81,0.81l-3.86,0c-0.44,0-0.77-0.37-0.81-0.81l-0.5-4.97C64.84,29.53,65.25,29.16,65.69,29.16L65.69,29.16 L65.69,29.16z M31.23,43.94l-1.99,1.08L31.23,43.94L31.23,43.94z M33.59,44.32l0.5,0.08L33.59,44.32L33.59,44.32z M40.68,37.25 c-1.18-1.76-3.1-2.99-5.31-3.25l-0.18,4.61c0.52,0.13,0.98,0.41,1.35,0.77l0,0l0.03,0.03L40.68,37.25L40.68,37.25L40.68,37.25z M29.69,47.11c0.02,0.02,0.04,0.03,0.06,0.05L29.69,47.11L29.69,47.11z M88.83,38.52l0.18-4.69c-2.33,0.05-4.4,1.16-5.75,2.86 l4.14,2.61C87.79,38.92,88.28,38.64,88.83,38.52L88.83,38.52L88.83,38.52z M90.39,33.93l-0.18,4.62c0.52,0.13,0.98,0.41,1.35,0.77 l0,0l0,0l0,0l0.02,0.03l3.93-2.07C94.39,35.53,92.54,34.28,90.39,33.93L90.39,33.93L90.39,33.93z M96.17,38.5l-3.87,2.04 c0.09,0.28,0.13,0.57,0.13,0.88c0,0.27-0.04,0.52-0.1,0.77l3.73,2.35c0.44-0.96,0.68-2.02,0.68-3.14 C96.74,40.37,96.54,39.39,96.17,38.5L96.17,38.5L96.17,38.5z M95.37,45.74l-3.7-2.33c-0.03,0.04-0.07,0.07-0.1,0.11 c-0.4,0.4-0.9,0.68-1.47,0.8l-0.12,4.59C92.21,48.68,94.15,47.48,95.37,45.74L95.37,45.74L95.37,45.74z M88.6,48.93l0.12-4.64 c-0.52-0.14-0.98-0.41-1.34-0.77c-0.05-0.05-0.11-0.11-0.16-0.17l-4.27,2.32C84.2,47.5,86.25,48.75,88.6,48.93L88.6,48.93 L88.6,48.93z M82.27,44.46l4.32-2.35c-0.05-0.22-0.08-0.46-0.08-0.69c0-0.33,0.05-0.65,0.16-0.95l-4.16-2.62 c-0.56,1.06-0.88,2.26-0.88,3.54C81.62,42.48,81.85,43.52,82.27,44.46L82.27,44.46L82.27,44.46z M90.66,40.23 c-0.3-0.3-0.72-0.49-1.19-0.49c-0.47,0-0.89,0.19-1.19,0.49c-0.08,0.08-0.15,0.16-0.21,0.25c-0.01,0.01-0.02,0.03-0.02,0.04 c-0.01,0.01-0.02,0.03-0.03,0.04c-0.15,0.25-0.23,0.54-0.23,0.86c0,0.47,0.19,0.89,0.49,1.19c0.3,0.3,0.73,0.49,1.19,0.49 c0.47,0,0.89-0.19,1.19-0.49c0.09-0.09,0.17-0.19,0.23-0.29c0.02-0.06,0.04-0.12,0.08-0.17c0.01-0.02,0.03-0.05,0.05-0.07 c0.09-0.2,0.14-0.43,0.14-0.66C91.15,40.95,90.97,40.53,90.66,40.23L90.66,40.23L90.66,40.23L90.66,40.23z M56.47,101.17H34.55 c-1.76-1.75-3.69-3.57-5.65-5.42c-4.11-3.89-8.4-7.95-12.81-13.03c-5.04-5.81-5.58-7.82-7.11-13.51c-0.29-1.07-0.61-2.27-1.03-3.76 l-2.62-9.21l-0.03-0.1c-1.4-4.1-1.51-6.81-0.93-8.37c0.18-0.48,0.41-0.8,0.68-0.97c0.21-0.14,0.49-0.19,0.78-0.16 C6.53,46.71,7.3,47.14,8,47.9l7.78,18.53c0.07,0.17,0.17,0.33,0.28,0.47c0.46,0.83,1.08,1.64,1.88,2.41l13.8,15.39 c0.75,0.84,2.04,0.91,2.87,0.16c0.84-0.75,0.91-2.04,0.16-2.87L20.96,66.6c-0.06-0.07-0.12-0.14-0.19-0.2 c-1.43-1.36-1.88-2.83-1.63-3.9c0.08-0.33,0.22-0.61,0.42-0.8c0.19-0.17,0.44-0.29,0.75-0.32v0c1.23-0.13,3.05,0.78,5.25,3.39 c0,0,0.19,0.19,0.21,0.21l5.35,4.72l0.03,0.03c5.79,5.48,8.28,6.78,12.82,9.15c0.95,0.5,1.99,1.04,3.28,1.74 c0.51,0.28,1.01,0.62,1.5,0.99c0.52,0.4,1.02,0.81,1.49,1.21c2.4,2.02,3.66,3.66,4.38,5.47c0.75,1.88,1.02,4.17,1.39,7.31 c0.15,1.27,0.26,2.52,0.35,3.77C56.41,99.99,56.44,100.59,56.47,101.17L56.47,101.17L56.47,101.17z M29.45,101.87 c-0.31,0.36-0.5,0.83-0.5,1.34v12.14c0,1.13,0.92,2.04,2.04,2.04h27.58c1.13,0,2.04-0.91,2.04-2.04V103.1c0-1.3-0.08-2.7-0.17-4 c-0.09-1.33-0.21-2.65-0.36-3.96c-0.4-3.43-0.7-5.94-1.66-8.35c-0.99-2.47-2.58-4.6-5.53-7.09c-0.54-0.46-1.09-0.92-1.67-1.35 c-0.61-0.46-1.27-0.9-2.01-1.31c-1.2-0.65-2.32-1.24-3.34-1.78c-4.2-2.2-6.5-3.4-11.91-8.52c-0.04-0.04-0.09-0.08-0.13-0.11 l-5.22-4.61c-3.19-3.73-6.31-4.97-8.7-4.71l-0.01,0v0c-1.17,0.12-2.17,0.58-2.97,1.28l-5.27-12.56l-0.01,0 c-0.08-0.18-0.18-0.35-0.31-0.51c-1.46-1.75-3.31-2.77-5.08-2.95c-1.21-0.12-2.38,0.14-3.4,0.8C1.87,44.02,1.08,45,0.57,46.35 c-0.88,2.35-0.86,6,0.86,11.05l2.6,9.15c0.38,1.32,0.71,2.59,1.02,3.71c1.7,6.35,2.3,8.6,7.97,15.12 c4.49,5.17,8.88,9.33,13.1,13.32C27.23,99.76,28.33,100.8,29.45,101.87L29.45,101.87L29.45,101.87z M33.35,105.26 c0.27,0.06,0.55,0.06,0.83,0h22.34v8.06H33.03v-8.06H33.35L33.35,105.26z M93.43,101.87c0.31,0.36,0.5,0.83,0.5,1.34v12.14 c0,1.13-0.91,2.04-2.04,2.04H64.32c-1.13,0-2.04-0.91-2.04-2.04V103.1c0-0.07,0-0.15,0.01-0.22c0.03-1.31,0.08-2.58,0.16-3.78 c0.09-1.33,0.21-2.65,0.36-3.96c0.4-3.43,0.7-5.94,1.66-8.35c0.99-2.47,2.58-4.6,5.53-7.09c0.54-0.46,1.09-0.92,1.67-1.35 c0.61-0.46,1.27-0.9,2.01-1.31c1.2-0.65,2.32-1.24,3.34-1.78c4.2-2.2,6.5-3.4,11.91-8.52c0.04-0.04,0.09-0.08,0.13-0.11l5.22-4.61 c3.19-3.73,6.31-4.97,8.7-4.71l0.01,0v0c1.17,0.12,2.17,0.58,2.97,1.28l5.27-12.56l0.01,0c0.08-0.18,0.18-0.35,0.31-0.51 c1.46-1.75,3.31-2.77,5.08-2.95c1.21-0.12,2.38,0.14,3.4,0.8c0.97,0.63,1.77,1.61,2.27,2.96c0.88,2.35,0.86,6-0.86,11.05l-2.6,9.15 c-0.38,1.32-0.71,2.59-1.02,3.71c-1.7,6.35-2.3,8.6-7.97,15.12c-4.49,5.17-8.88,9.33-13.1,13.32 C95.65,99.76,94.55,100.8,93.43,101.87L93.43,101.87L93.43,101.87z M89.53,105.26c-0.27,0.06-0.55,0.06-0.83,0H66.36v8.06h23.49 v-8.06H89.53L89.53,105.26z"/></g></svg>